<svg version="1.1" xmlns="http://www.w3.org/2000/svg" height="1024" width="1024" viewBox="0 0 1024 1024"><path d="M536.671487 240.905941c22.039765-53.398433 57.069856-115.08283 112.713807-160.464761a15.381803 15.381803 0 0 0-0.269462-24.038277l-47.054843-36.714229a22.06222 22.06222 0 0 0-32.952986 6.826376c-19.412509 35.613925-55.015206 115.150195-69.195656 211.078751 15.774768 12.024752 22.982883 12.788229 36.781595 3.368278" fill="#8F5540"></path><path d="M609.819256 26.51505c0.101048-0.190869 0.224552-0.348055 0.336828-0.538924l-8.061412-6.287452a22.06222 22.06222 0 0 0-32.952986 6.826376c-19.412509 35.613925-55.015206 115.150195-69.195656 211.078751 15.71863 12.013525 22.982883 12.788229 36.781595 3.368278q2.537436-6.152721 5.321879-12.440173c14.932699-91.886622 48.929851-167.538145 67.769752-202.006856" fill="#7C4D3D"></path><path d="M875.284468 612.09017c0 17.49259-33.581731 32.807027-35.569015 49.682099-2.043422 17.346631 26.946224 40.082507 22.994111 56.620752-4.109299 16.964893-40.363197 23.83618-46.381188 39.779363-6.152721 16.313693 16.425969 45.471752 8.431923 60.527954-8.173688 15.381803-44.977738 12.889277-54.90293 26.766582-10.104834 14.157995 4.008251 48.27865-7.758267 60.629003-11.968614 12.597359-46.650649 0.101048-60.123761 10.643759-13.652753 10.677441-10.015013 47.391671-25.015078 55.733772s-44.225489-14.113085-60.471817-8.319647-24.554746 41.676826-41.65437 44.640911c-16.774024 2.919174-36.75914-28.001617-54.25173-28.001618s-37.477706 30.920791-54.25173 28.001618c-17.099624-2.975312-25.497864-38.869927-41.654371-44.640911s-45.381931 16.706659-60.471816 8.319647S352.830877 927.405895 339.234262 916.739682c-13.473112-10.54271-48.155147 1.953601-60.123761-10.643759-11.766518-12.350352 2.369022-46.45978-7.758267-60.629003-9.925192-13.877305-46.729243-11.384779-54.902931-26.766582-8.005274-15.056202 14.595871-44.214262 8.431923-60.527954-6.0629-15.920727-42.328026-22.758331-46.426098-39.768135-3.997023-16.538245 25.037533-39.296576 22.994111-56.620752-1.987284-16.84139-35.569015-32.189509-35.569015-49.693327s33.581731-32.807027 35.569015-49.6821c2.043422-17.346631-26.946224-40.082507-22.994111-56.620752 4.109299-16.964893 40.363197-23.83618 46.381187-39.779362 6.152721-16.313693-16.425969-45.471752-8.431922-60.527955 8.173688-15.381803 44.977738-12.889277 54.90293-26.766582 10.104834-14.157995-4.008251-48.27865 7.758267-60.629003 11.968614-12.597359 46.650649-0.101048 60.123761-10.643758 13.652753-10.677441 10.015013-47.391671 25.015078-55.733772s44.225489 14.113085 60.471816 8.319646 24.554746-41.665598 41.654371-44.64091c16.774024-2.907947 36.75914 28.001617 54.25173 28.001617s37.477706-30.920791 54.25173-28.001617c17.099624 2.975312 25.497864 38.869927 41.65437 44.64091s45.381931-16.706659 60.471817-8.308419 11.362324 45.056331 25.015078 55.733772c13.473112 10.54271 48.155147-1.953601 60.123761 10.643759 11.766518 12.350352-2.369022 46.45978 7.758267 60.629003 9.925192 13.877305 46.729243 11.384779 54.90293 26.766582 8.005274 15.056202-14.595871 44.214262-8.431923 60.527954 6.01799 15.943182 42.271888 22.814469 46.381188 39.779363 3.997023 16.538245-25.037533 39.296576-22.994111 56.620752 1.987284 16.84139 35.569015 32.189509 35.569015 49.693327" fill="#C5B127"></path><path d="M396.068338 916.739682c-13.473112-10.54271-48.155147 1.953601-60.123761-10.643759-11.766518-12.350352 2.369022-46.45978-7.758267-60.629003-9.925192-13.877305-46.729243-11.384779-54.90293-26.766582-8.005274-15.056202 14.595871-44.214262 8.431922-60.527954-6.01799-15.931955-42.271888-22.814469-46.381187-39.779363-3.997023-16.538245 25.037533-39.296576 22.994111-56.620752-1.987284-16.84139-35.569015-32.189509-35.569015-49.693327s33.581731-32.807027 35.569015-49.682099c2.043422-17.346631-26.946224-40.082507-22.994111-56.620753 4.109299-16.964893 40.363197-23.83618 46.381187-39.779362 6.152721-16.313693-16.425969-45.471752-8.431922-60.527955 8.173688-15.381803 44.977738-12.889277 54.90293-26.766582 10.104834-14.157995-4.008251-48.27865 7.758267-60.629002 11.968614-12.597359 46.650649-0.101048 60.123761-10.643759 10.699896-8.364557 10.789717-32.705979 17.526273-46.875201-16.257555-2.514981-37.331747-15.572672-49.40141-8.858571-15.000064 8.342102-11.362324 45.056331-25.015077 55.733772-13.473112 10.54271-48.155147-1.953601-60.123761 10.643759-11.766518 12.350352 2.369022 46.45978-7.758267 60.629002-9.925192 13.877305-46.729243 11.384779-54.902931 26.766582-8.005274 15.056202 14.595871 44.214262 8.431923 60.527955-6.01799 15.943182-42.271888 22.814469-46.381187 39.779362-3.997023 16.538245 25.037533 39.296576 22.99411 56.620753-1.987284 16.84139-35.569015 32.189509-35.569015 49.682099s33.581731 32.807027 35.569015 49.693327c2.043422 17.346631-26.946224 40.082507-22.99411 56.620752 4.109299 16.964893 40.363197 23.83618 46.381187 39.779363 6.152721 16.313693-16.425969 45.471752-8.431923 60.527954 8.173688 15.381803 44.977738 12.889277 54.902931 26.766582 10.104834 14.157995-4.008251 48.27865 7.758267 60.629003 11.968614 12.597359 46.650649 0.101048 60.123761 10.643759 13.652753 10.677441 10.015013 47.391671 25.015077 55.733772 12.069663 6.736556 33.143855-6.34359 49.40141-8.858571-6.736556-14.157995-6.837604-38.499417-17.526273-46.875201" fill="#807224"></path><path d="M874.790454 721.940941c3.581602-14.797968-5.389245-28.461949-13.29347-40.520384-3.368278-5.13101-9.633275-14.685692-9.397496-17.806962 0-0.190869 0.516469-1.976056 4.491037-6.354818a15.000064 15.000064 0 0 0-22.073448-20.321944c-4.693134 5.097327-11.070407 13.046463-12.260531 23.095159-2.627257 22.612373 22.85938 45.325793 23.342166 54.891703-4.423672 8.44315-37.814534 16.84139-45.786125 37.960493s11.081634 49.40141 9.161716 58.810132c-6.433411 7.017246-40.711253 6.736556-53.802626 25.059988s-2.189381 50.434348-6.478321 59.01223c-8.128777 4.884003-40.834756-4.614541-58.383485 9.161716s-16.583155 47.436581-23.22989 54.397688c-3.31214 0.707338-13.473112-2.818126-19.086908-4.726816-36.096712-12.451401-47.155891-7.488805-66.399986 23.577945-3.110043 5.018734-8.824888 14.236588-11.867566 15.785996-9.532227-1.526953-29.371384-28.170031-51.725521-28.170031s-42.182067 26.643078-51.725522 28.170031c-8.622792-4.423672-18.121335-36.43354-39.13939-43.933572-20.782275-7.410211-49.16563 11.227593-58.192615 9.296447-6.62428-6.983563-5.422927-40.576522-23.095159-54.408916-17.458907-13.652753-51.209052-4.491037-58.383484-9.105578-4.401217-8.375784 6.736556-40.587749-6.512004-59.05714-12.911732-18.121335-48.099009-18.458163-53.757716-24.992622-2.05465-9.273992 17.223128-37.477706 9.150488-58.866271C228.417918 731.866133 194.39831 722.839148 190.558474 714.968606c0.303145-9.464861 25.946968-32.23442 23.2748-54.947841C211.2397 637.733992 180.262771 620.892603 178.387763 612.09017c1.875008-8.813661 32.829482-25.632595 35.456739-47.930595 2.649712-22.646055-22.814469-45.337021-23.286028-54.902931 4.412444-8.44315 37.814534-16.84139 45.786124-37.960492s-11.070407-49.457548-9.161716-58.810133c6.242542-6.803921 40.812301-6.882515 53.802627-25.059988 13.158739-18.390798 2.178153-50.423121 6.478321-59.001002 8.140005-4.884003 40.834756 4.603313 58.383484-9.161716s16.493334-47.436581 23.095159-54.408916c9.296447-1.953601 37.241926 16.774024 58.192615 9.296447S457.674142 234.663399 466.341844 230.172362c4.221575 0.673656 15.471623 10.363068 21.961172 15.291982 26.351161 19.996343 40.127418 15.471623 65.40073-4.614541 4.80541-3.817382 12.765773-10.104834 16.077913-10.677441 8.566654 4.389989 18.177473 36.444767 39.13939 43.933572s48.761437-11.227593 58.192615-9.296447c2.312884 2.436388 4.625768 12.496311 6.029217 18.570439 8.521743 36.972464 18.446936 44.371448 55.722545 43.607971 6.006762-0.123504 17.144535-0.348055 19.760564 1.347312 1.526953 2.907947 0.830842 13.259787 0.404193 19.491101-2.604802 38.342231 5.119782 48.27865 41.205267 57.810877 5.838348 1.53818 16.639293 4.389989 18.693943 6.736556 2.043422 9.240309-17.2119 37.533844-9.150489 58.855043 4.816637 12.754546 17.863101 20.108619 29.371384 26.598168 5.220831 3.03145 15.033747 8.544198 16.448424 11.38478-0.303145 9.453633-25.946968 32.23442-23.274801 54.947841 1.190125 10.048696 7.567398 17.964149 12.260532 23.095159a15.000064 15.000064 0 0 0 22.073448-20.321944c-4.098071-4.491037-4.491037-6.264997-4.491037-6.264997-0.752249-9.577137 28.529314-34.210476 22.679738-58.383484-5.916942-24.453698-42.77713-32.952986-46.920112-41.542095-3.020223-9.105578 19.333915-40.273377 7.634764-62.279459-11.901249-22.331683-49.839286-21.208923-56.014463-28.484403-5.276969-8.038957 8.140005-44.101986-9.083122-62.223322-17.413997-18.33466-53.802626-6.736556-61.751763-12.1258-7.410211-6.29868-4.906458-44.753186-26.946223-57.036173-13.720119-7.634763-29.52857-2.189381-43.462013 2.627257-5.669935 1.953601-16.246327 5.613797-19.232867 4.681906-2.907947-1.21258-8.521743-10.284475-11.878794-15.71863-7.859315-12.608587-16.672976-26.946224-32.268102-29.607164a28.664045 28.664045 0 0 0-6.736556-0.336827c5.916942-10.879538 12.193166-21.332427 18.862356-31.336213a15.000064 15.000064 0 1 0-24.947712-16.661748 452.820058 452.820058 0 0 0-39.959004 74.472625c-3.839837 2.14447-4.266485 2.245519-8.499288-0.168414A624.647144 624.647144 0 0 1 579.751762 33.689482a6.961108 6.961108 0 0 1 4.760499-3.525464c4.389989-0.920663 2.324112-1.358539 52.859509 38.072768a0.348055 0.348055 0 0 1 0.157186 0.3256S622.495209 80.957649 608.539311 95.104417a15.000064 15.000064 0 0 0 21.332426 21.074192A333.931075 333.931075 0 0 1 656.35763 92.072967a30.381867 30.381867 0 0 0-0.550152-47.492719L608.763862 7.866018a37.051057 37.051057 0 0 0-55.363261 11.463373 657.005067 657.005067 0 0 0-66.714359 187.56817c-7.735812-4.749272-16.156507-7.859315-25.430498-6.287452-25.015077 4.345079-35.26587 41.542095-44.124441 45.292111-3.042678 0.943118-13.596615-2.717078-19.26655-4.670679-13.933443-4.80541-29.730667-10.26202-43.462013-2.627257-22.107131 12.350352-19.580922 50.748721-26.946223 57.002491-8.016501 5.445383-44.393903-6.152721-61.751763 12.148255s-3.794926 54.150682-9.04944 62.178411C250.435228 377.253832 212.362459 376.265804 200.640852 398.4403s10.643758 53.185109 7.657219 62.223321c-4.142982 8.622792-41.04808 17.256811-46.953795 41.598233-5.827121 24.105642 23.409532 48.941078 22.690966 58.383484C182.047958 569.941785 148.365179 587.075092 148.365179 612.09017S182.047958 654.317147 184.035242 663.557457c0.741021 9.509771-28.518087 34.289069-22.679738 58.383484 5.916942 24.453698 42.77713 32.941758 46.920112 41.542094 3.03145 9.128033-19.333915 40.262149-7.634764 62.279459 11.833883 22.264317 49.760693 21.141558 55.947097 28.450721 5.276969 8.038957-8.151233 44.090758 9.083123 62.223322 17.391542 18.312204 53.813854 6.736556 61.751762 12.1258 7.354073 6.253769 4.962596 44.786869 26.946223 57.036173s53.499481-10.104834 62.69488-7.309163c8.982075 3.761244 19.086908 40.947032 44.158124 45.303338s47.155891-27.664789 56.822849-27.788293c9.711868 0.123504 31.863909 32.099689 56.811621 27.788293 25.149809-4.367534 35.164822-41.542095 44.124441-45.29211 3.042678-0.920663 13.596615 2.717078 19.26655 4.670678 13.933443 4.80541 29.741894 10.26202 43.462013 2.627257s17.357859-23.780042 20.647544-38.072768c1.358539-5.905714 3.895975-16.84139 6.287452-18.929722 2.604802-1.762732 13.237332-1.549408 19.580922-1.414677 14.719375 0.291917 31.437261 0.639973 42.204523-10.733579 17.301721-18.199928 3.783699-54.150682 9.04944-62.178411 6.186404-7.320391 44.203034-6.332363 55.980779-28.495631 11.676697-21.9724-10.632531-53.218791-7.657218-62.212093 4.154209-8.622792 41.04808-17.256811 46.953794-41.609461" fill="#0A090B"></path><path d="M318.362166 606.992842a276.99595 209.989674 90 1 0 419.979349 0 276.99595 209.989674 90 1 0-419.979349 0Z" fill="#F4E46C"></path><path d="M528.35184 891.848108c-58.608036 0-113.567104-29.921536-154.749916-84.206949-40.688797-53.679123-63.099073-124.918201-63.099073-200.614634s22.455186-146.935511 63.099073-200.614634c41.182812-54.319096 96.14188-84.206948 154.749916-84.206948s113.567104 29.921536 154.749916 84.206948c40.688797 53.679123 63.099073 124.918201 63.099074 200.614634s-22.455186 146.935511-63.099074 200.614634c-41.182812 54.285413-96.14188 84.206948-154.749916 84.206949z m0-553.9919c-111.456317 0-202.096676 120.730309-202.096676 269.136634s90.674042 269.136635 202.096676 269.136635 202.096676-120.730309 202.096677-269.136635-90.640359-269.136635-202.096677-269.136634z"></path><path d="M521.491781 323.148061h15.71863v559.841476h-15.71863z"></path><path d="M495.454993 400.000936c-73.507052 0-133.091889 92.22345-133.091889 205.992651S421.94794 811.986238 495.454993 811.986238" fill="#DFBA1B"></path><path d="M495.454993 818.161414c-37.713485 0-72.979355-22.455186-99.296834-63.155211-25.823464-39.891638-39.970232-92.818512-39.970232-149.012616s14.191678-109.120978 39.970232-149.023844c26.317478-40.733708 61.583348-63.155211 99.296834-63.155211v12.350352c-69.981588 0-126.871802 89.641104-126.871803 199.851158s56.935125 199.851158 126.871803 199.851157z"></path><path d="M468.239307 420.839348h14.595871v368.512062h-14.595871z" fill="#D39A15"></path><path d="M366.708182 547.744834h128.93768v11.227593H366.708182zM366.708182 658.460129h128.93768v11.227593H366.708182z" fill="#333333"></path><path d="M486.338187 395.420078h14.595871v421.13579h-14.595871z"></path><path d="M570.354266 401.954537v412.052667c73.406004 0 132.923475-92.22345 132.923475-205.992651S643.76027 401.954537 570.354266 401.954537z" fill="#DFBA1B"></path><path d="M570.354266 820.159926h-6.175176V395.824271h6.175176c37.668575 0 72.889535 22.455186 99.17333 63.166439 25.744871 39.891638 39.914094 92.807285 39.914094 149.012616s-14.18045 109.120978-39.914094 149.012616c-26.283796 40.72248-61.504755 63.143984-99.17333 63.143984z m6.175177-411.749523v399.174618c67.028731-5.0861 120.573123-92.661326 120.573122-199.581695s-53.544392-194.506823-120.573122-199.592923z"></path><path d="M574.059372 420.760755h14.595871v377.606412h-14.595871z" fill="#D39A15"></path><path d="M578.35954 550.383318h117.564128v11.227593H578.35954z" fill="#333333"></path><path d="M578.35954 660.380048h117.564128v11.227593H578.35954z" fill="#333333"></path><path d="M558.060052 397.609458h14.595871V818.385966h-14.595871z"></path></svg>